<?xml version="1.0" encoding="UTF-8"?><svg xmlns="http://www.w3.org/2000/svg" xmlns:xlink="http://www.w3.org/1999/xlink" height="479.4" preserveAspectRatio="xMidYMid meet" version="1.0" viewBox="0.0 0.0 479.4 479.4" width="479.4" zoomAndPan="magnify"><g id="change1_1"><path d="M239.7250977,479.449707c-64.0327148,0-124.2329102-24.9355469-169.5112305-70.2138672S0,303.7573242,0,239.7250977 c0-64.0327148,24.9355469-124.2329102,70.2138672-169.5112305S175.6923828,0,239.7250977,0 c64.0322266,0,124.2324219,24.9355469,169.5107422,70.2138672s70.2138672,105.4785156,70.2138672,169.5112305 c0,64.0322266-24.9355469,124.2324219-70.2138672,169.5107422S303.7573242,479.449707,239.7250977,479.449707z M239.7250977,2 c-63.4985352,0-123.1967773,24.7275391-168.097168,69.6279297S2,176.2265625,2,239.7250977 c0,63.4980469,24.7275391,123.1962891,69.6279297,168.0966797s104.5986328,69.6279297,168.097168,69.6279297 c63.4980469,0,123.1962891-24.7275391,168.0966797-69.6279297s69.6279297-104.5986328,69.6279297-168.0966797 c0-63.4985352-24.7275391-123.1967773-69.6279297-168.097168S303.2231445,2,239.7250977,2z" fill="inherit"/></g><g id="change2_1"><path d="M220.2963867,443.8901367c-0.0322266,0-0.0654297-0.0019531-0.0981445-0.0048828 c-50.6704102-4.9599609-97.5581055-28.65625-132.0258789-66.7236328 c-34.456543-38.0566406-53.3730469-87.0126953-53.2646484-137.8525391 c0.1079102-50.6826172,19.1269531-99.4453125,53.5541992-137.3061523 c34.4379883-37.8725586,81.2226562-61.453125,131.7363281-66.3969727c0.5512695-0.0556641,1.0390625,0.3491211,1.0922852,0.8974609 c0.0537109,0.5498047-0.3481445,1.0390625-0.8979492,1.0927734c-50.0185547,4.8959961-96.347168,28.2470703-130.4511719,65.7524414 c-34.0922852,37.4926758-52.9267578,85.7792969-53.0336914,135.9643555 c-0.1074219,50.3408203,18.625,98.8193359,52.7470703,136.5058594 c34.1333008,37.6982422,80.5634766,61.1650391,130.7382812,66.0761719c0.5493164,0.0537109,0.9511719,0.5429688,0.8974609,1.0927734 C221.2402344,443.5043945,220.8051758,443.8901367,220.2963867,443.8901367z" fill="#545454"/></g><g id="change3_1"><path d="M259.7250977,443.8901367c-0.5087891,0-0.9433594-0.3857422-0.9941406-0.9023438 c-0.0537109-0.5498047,0.3476562-1.0390625,0.8974609-1.0927734c50.1748047-4.9111328,96.6054688-28.3779297,130.7382812-66.0761719 c34.1210938-37.6855469,52.8544922-86.1650391,52.7470703-136.5058594 c-0.1064453-50.1850586-18.9414062-98.4716797-53.0332031-135.9643555 c-34.1044922-37.5053711-80.4326172-60.8564453-130.4521484-65.7524414 c-0.5498047-0.0537109-0.9511719-0.5429688-0.8974609-1.0927734c0.0537109-0.5483398,0.5361328-0.9545898,1.0927734-0.8974609 c50.5136719,4.9438477,97.2978516,28.5244141,131.7363281,66.3969727 c34.4267578,37.8608398,53.4462891,86.6235352,53.5537109,137.3061523 c0.1083984,50.8398438-18.8085938,99.796875-53.2646484,137.8525391 c-34.4677734,38.0673828-81.3554688,61.7636719-132.0253906,66.7236328 C259.7905273,443.8881836,259.7573242,443.8901367,259.7250977,443.8901367z" fill="#737373"/></g><g id="change4_1"><path d="M243.6576385,443.7836609c0,2.0140991-1.6327362,3.6468201-3.6468201,3.6468201 c-2.0140991,0-3.6468353-1.6327209-3.6468353-3.6468201c0-2.0140686,1.6327362-3.6468201,3.6468353-3.6468201 C242.0249023,440.1368408,243.6576385,441.7695923,243.6576385,443.7836609z M240.0108185,32.9542542 c-2.0140991,0-3.6468353,1.63274-3.6468353,3.6468277s1.6327362,3.6468277,3.6468353,3.6468277 c2.0140839,0,3.6468201-1.63274,3.6468201-3.6468277S242.0249023,32.9542542,240.0108185,32.9542542z" fill="#A6A6A6"/></g></svg>